{"title":"Endless Love - Un Amore Senza Fine (2014)  [XviD - Italian Engli","uid":11441869,"size":1890290245,"categoryP":"video","categoryS":"movies","magnet":"?xt=urn:btih:7d1a75d22cd37bf92e2c74c16ebfd4b82589bea8&amp;dn=Endless+Love+-+Un+Amore+Senza+Fine+%282014%29++%5BXviD+-+Italian+Engli&amp;tr=udp%3A%2F%2Ftracker.openbittorrent.com%3A80&amp;tr=udp%3A%2F%2Fopen.demonii.com%3A1337&amp;tr=udp%3A%2F%2Ftracker.coppersurfer.tk%3A6969&amp;tr=udp%3A%2F%2Fexodus.desync.com%3A6969","seeders":25,"leechers":4,"uploader":"robbyrs4","files":3,"time":1415817155,"description":"Endless Love - Un Amore Senza Fine (2014)  [XviD - Italian English Ac3 5.1 - Ita Eng - Sub Ita Eng] MIRCrew\n\nUn Amore Senza Fine - Endless Love (2014)  [XviD - Italian English Ac3 5.1 - Ita Eng - Sub Ita Eng] MIRCrew\n\n\n\n[center][color=red][b][img]http://s19.postimg.org/mqmhlwtlf/Mircrew_original_red_skull.png[/img]\n\n[u]NO FOUND ONLY ORIGINAL RELEASE[/u]\n\nUn Amore Senza Fine - Endless Love (2014)\n\n[img]http://s19.postimg.org/vpb1k5u8j/image.jpg[/img]\n\n\n[URL=http://www.imdb.com/title/tt2318092/][IMG]http://www.userlogos.org/files/logos/Sucka/imdb_new.png[/IMG][/URL]  \n\n[img]http://imageshack.us/a/img534/6946/zcu.gif[/img]\n\nTitolo originale \tEndless Love\nLingua originale \tinglese\nPaese di produzione \tStati Uniti d'America\nAnno \t2014\nDurata \t104 min\nRapporto \t2.35 : 1\nGenere \tdrammatico sentimentale\nRegia \tShana Feste\nSoggetto \tScott Spencer\nSceneggiatura \tShana Feste, Joshua Safran\nProduttore \tJosh Schwartz, Pamela Abdy, Scott Stuber, Stephanie Savage\nCasa di produzione \tBluegrass Films\nFake Empire\nUniversal Pictures\nDistribuzione (Italia) \tUniversal Pictures\nFotografia \tAndrew Dunn\nMontaggio \tMaryann Brandon\nMusiche \tChristophe Beck\nScenografia \tClay A. Griffith\n\n[img]http://imageshack.us/a/img4/8946/u96.gif[/img]\n\n \n\n    Alex Pettyfer: David Elliot\n    Gabriella Wilde: Jade Butterfield\n    Robert Patrick: Harry Elliot\n    Bruce Greenwood: Hugh Butterfield\n    Joely Richardson: Anne Butterfield\n    Rhys Wakefield: Keith Butterfield\n    Dayo Okeniyi: Mace\n    Emma Rigby: Jenny\n    Andrew Masset: Joe\n    Stephanie Northrup: Dawn\n    Anna Enger: Sabine\n    Sharon Conley: Dott.ssa Nesbitt\n\n\n\n[img]http://imageshack.us/a/img844/6546/cupz.gif[/img]. \n\nLa pellicola racconta la storia tormentata di due amanti: Jade e David. Dopo il diploma Jade cerca di instaurare dei rapporti con i suoi coetanei, dopo due anni di lutto per il fratello Chris e conosce David, innamorato di lei sin dal secondo anno di liceo.......\n\n[img]http://imageshack.us/a/img202/6180/4e6.gif[/img]\n\nThe story of a privileged girl and a charismatic boy whose instant desire sparks a love affair made only more reckless by parents trying to keep them apart.......\n\n &lt;a href=&quot;\nhttp://s19.postimg.org/44i7swcpf/vlcsnap_2014_11_12_17h58m30s9.png[/img]&quot; rel=&quot;nofollow&quot; target=&quot;_NEW&quot;&gt;\nhttp://s19.postimg.org/44i7swcpf/vlcsnap_2014_11_12_17h58m30s9.png[/img]&lt;/a&gt;\n &lt;a href=&quot;\nhttp://s19.postimg.org/4fzo5nt5f/vlcsnap_2014_11_12_17h58m25s151.png[/img]&quot; rel=&quot;nofollow&quot; target=&quot;_NEW&quot;&gt;\nhttp://s19.postimg.org/4fzo5nt5f/vlcsnap_2014_11_12_17h58m25s151.png[/img]&lt;/a&gt;\n &lt;a href=&quot;\nhttp://s19.postimg.org/a6puje15f/vlcsnap_2014_11_12_17h58m39s92.png[/img]&quot; rel=&quot;nofollow&quot; target=&quot;_NEW&quot;&gt;\nhttp://s19.postimg.org/a6puje15f/vlcsnap_2014_11_12_17h58m39s92.png[/img]&lt;/a&gt;\n\n\n\n[img]http://imageshack.us/a/img571/2166/an4p.gif[/img]\n\n\n[spoiler]\nGeneral\nComplete name                            : Un Amore Senza Fine - Endless Love (2014).ita.eng.sub.ita.eng.MIRCrewUn Amore Senza Fine - Endless Love (2014).ita.eng.sub.ita.eng.MIRCrew.avi\nFormat                                   : AVI\nFormat/Info                              : Audio Video Interleave\nFile size                                : 1.76 GiB\nDuration                                 : 1h 44mn\nOverall bit rate                         : 2 408 Kbps\nWriting application                      : VirtualDubMod 1.5.4.1 (build 2178/release)\nWriting library                          : VirtualDubMod build 2178/release\n\nVideo\nID                                       : 0\nFormat                                   : MPEG-4 Visual\nFormat profile                           : Simple@L3\nFormat settings, BVOP                    : No\nFormat settings, QPel                    : No\nFormat settings, GMC                     : No warppoints\nFormat settings, Matrix                  : Default (H.263)\nCodec ID                                 : XVID\nCodec ID/Hint                            : XviD\nDuration                                 : 1h 44mn\nBit rate                                 : 1 498 Kbps\nWidth                                    : 720 pixels\nHeight                                   : 304 pixels\nDisplay aspect ratio                     : 2.35:1\nFrame rate                               : 23.976 fps\nColor space                              : YUV\nChroma subsampling                       : 4:2:0\nBit depth                                : 8 bits\nScan type                                : Progressive\nCompression mode                         : Lossy\nBits/(Pixel*Frame)                       : 0.286\nStream size                              : 1.10 GiB (62%)\nWriting library                          : XviD 65\n\nAudio #1\nID                                       : 1\nFormat                                   : AC-3\nFormat/Info                              : Audio Coding 3\nMode extension                           : CM (complete main)\nCodec ID                                 : 2000\nDuration                                 : 1h 44mn\nBit rate mode                            : Constant\nBit rate                                 : 448 Kbps\nChannel(s)                               : 6 channels\nChannel positions                        : Front: L C R, Side: L R, LFE\nSampling rate                            : 48.0 KHz\nBit depth                                : 16 bits\nCompression mode                         : Lossy\nStream size                              : 335 MiB (19%)\nAlignment                                : Split accross interleaves\nInterleave, duration                     : 42 ms (1.00 video frame)\nInterleave, preload duration             : 500 ms\n\nAudio #2\nID                                       : 2\nFormat                                   : AC-3\nFormat/Info                              : Audio Coding 3\nMode extension                           : CM (complete main)\nCodec ID                                 : 2000\nDuration                                 : 1h 44mn\nBit rate mode                            : Constant\nBit rate                                 : 448 Kbps\nChannel(s)                               : 6 channels\nChannel positions                        : Front: L C R, Side: L R, LFE\nSampling rate                            : 48.0 KHz\nBit depth                                : 16 bits\nCompression mode                         : Lossy\nStream size                              : 335 MiB (19%)\nAlignment                                : Split accross interleaves\nInterleave, duration                     : 42 ms (1.00 video frame)\nInterleave, preload duration             : 500 ms\n\n\n\n\n[/spoiler]\n\n[/color][/b][/center]","torrent":{"xt":"urn:btih:7d1a75d22cd37bf92e2c74c16ebfd4b82589bea8","amp;dn":"Endless+Love+-+Un+Amore+Senza+Fine+%282014%29++%5BXviD+-+Italian+Engli","amp;tr":["udp%3A%2F%2Ftracker.openbittorrent.com%3A80","udp%3A%2F%2Fopen.demonii.com%3A1337","udp%3A%2F%2Ftracker.coppersurfer.tk%3A6969","udp%3A%2F%2Fexodus.desync.com%3A6969"],"infoHash":"7d1a75d22cd37bf92e2c74c16ebfd4b82589bea8","infoHashBuffer":{"type":"Buffer","data":[125,26,117,210,44,211,123,249,46,44,116,193,110,191,212,184,37,137,190,168]},"announce":[],"urlList":[]}}